<?xml version="1.0" standalone="no"?>
<!DOCTYPE svg PUBLIC "-//W3C//DTD SVG 20010904//EN"
 "http://www.w3.org/TR/2001/REC-SVG-20010904/DTD/svg10.dtd">
<svg version="1.0" xmlns="http://www.w3.org/2000/svg"
 width="260.000000pt" height="260.000000pt" viewBox="0 0 260.000000 260.000000"
 preserveAspectRatio="xMidYMid meet">
<metadata>
Created by potrace 1.11, written by Peter Selinger 2001-2013
</metadata>
<g transform="translate(0.000000,260.000000) scale(0.100000,-0.100000)"
fill="#000000" stroke="none">
<path d="M638 2051 c-67 -27 -125 -76 -170 -145 -44 -68 -65 -131 -74 -222 -6
-61 -6 -64 14 -64 23 0 27 11 36 97 6 58 51 155 97 207 16 19 58 49 91 66 53
26 72 30 140 30 94 0 194 -19 314 -61 98 -34 262 -69 324 -69 22 0 40 -2 40
-5 0 -13 -420 -876 -472 -970 -142 -256 -240 -352 -399 -390 -150 -35 -272 -8
-369 82 -98 91 -139 182 -143 319 -2 71 -4 79 -22 79 -17 0 -20 -8 -23 -55
-11 -183 98 -374 256 -452 116 -57 290 -50 431 18 138 68 243 224 480 716 63
131 116 236 118 234 2 -1 8 -63 13 -137 5 -74 12 -165 15 -204 3 -38 14 -196
25 -350 12 -154 25 -284 30 -289 5 -5 15 -6 22 -3 7 2 87 121 177 263 205 323
423 656 427 651 2 -1 -15 -70 -37 -152 -56 -214 -72 -317 -67 -438 5 -112 28
-175 85 -229 79 -75 233 -78 310 -6 26 25 29 41 10 57 -11 8 -18 6 -31 -8 -22
-24 -91 -55 -109 -48 -25 9 -42 96 -40 202 2 110 9 142 179 769 85 316 90 329
121 353 18 14 50 31 70 38 29 10 39 19 41 39 3 25 1 26 -25 20 -121 -27 -248
-153 -479 -474 -73 -102 -329 -484 -409 -612 -27 -43 -49 -77 -51 -75 -1 1 -5
52 -8 112 -4 61 -9 128 -12 150 -2 22 -13 184 -24 360 -11 176 -23 357 -27
403 l-6 82 -51 0 c-82 0 -229 28 -344 65 -162 52 -228 65 -332 64 -68 0 -108
-5 -142 -18z"/>
</g>
</svg>
